<?xml version="1.0" encoding="UTF-8" standalone="no"?>
<!-- Created with Inkscape (http://www.inkscape.org/) -->
<svg
   xmlns:svg="http://www.w3.org/2000/svg"
   xmlns="http://www.w3.org/2000/svg"
   version="1.0"
   width="856.02753"
   height="279.31888"
   id="svg11710"
   xml:space="preserve"><defs
     id="defs11713"><clipPath
       id="clipPath11727"><path
         d="M -9,851 L 604,851 L 604,-9 L -9,-9 L -9,851 z"
         id="path11729" /></clipPath><clipPath
       id="clipPath11733"><path
         d="M 0,842.04 L 594.96,842.04 L 594.96,0 L 0,0 L 0,842.04 z"
         id="path11735" /></clipPath><clipPath
       id="clipPath11747"><path
         d="M 0,840.61 L 603.78,840.61 L 603.78,-0.14 L 0,-0.14 L 0,840.61 z"
         id="path11749" /></clipPath><clipPath
       id="clipPath11753"><path
         d="M -9,851 L 604,851 L 604,-9 L -9,-9 L -9,851 z"
         id="path11755" /></clipPath><clipPath
       id="clipPath11759"><path
         d="M 0,842.04 L 594.96,842.04 L 594.96,0 L 0,0 L 0,842.04 z"
         id="path11761" /></clipPath><clipPath
       id="clipPath11771"><path
         d="M 0,850.5 L 603.78,850.5 L 603.78,643.58 L 0,643.58 L 0,850.5 z"
         id="path11773" /></clipPath><clipPath
       id="clipPath11777"><path
         d="M -9,851 L 604,851 L 604,-9 L -9,-9 L -9,851 z"
         id="path11779" /></clipPath><clipPath
       id="clipPath11783"><path
         d="M 0,842.04 L 594.96,842.04 L 594.96,0 L 0,0 L 0,842.04 z"
         id="path11785" /></clipPath><clipPath
       id="clipPath11795"><path
         d="M -9,851 L 604,851 L 604,-9 L -9,-9 L -9,851 z"
         id="path11797" /></clipPath><clipPath
       id="clipPath11801"><path
         d="M 0,842.04 L 594.96,842.04 L 594.96,0 L 0,0 L 0,842.04 z"
         id="path11803" /></clipPath><clipPath
       id="clipPath11813"><path
         d="M 42.52,799.48 L 155.91,799.48 L 155.91,759.8 L 42.52,759.8 L 42.52,799.48 z"
         id="path11815" /></clipPath><clipPath
       id="clipPath11819"><path
         d="M -9,851 L 604,851 L 604,-9 L -9,-9 L -9,851 z"
         id="path11821" /></clipPath><clipPath
       id="clipPath11825"><path
         d="M 0,842.04 L 594.96,842.04 L 594.96,0 L 0,0 L 0,842.04 z"
         id="path11827" /></clipPath><clipPath
       id="clipPath11837"><path
         d="M -9,851 L 604,851 L 604,-9 L -9,-9 L -9,851 z"
         id="path11839" /></clipPath><clipPath
       id="clipPath11843"><path
         d="M 0,842.04 L 594.96,842.04 L 594.96,0 L 0,0 L 0,842.04 z"
         id="path11845" /></clipPath><clipPath
       id="clipPath11863"><path
         d="M -9,851 L 604,851 L 604,-9 L -9,-9 L -9,851 z"
         id="path11865" /></clipPath><clipPath
       id="clipPath11869"><path
         d="M 0,842.04 L 594.96,842.04 L 594.96,0 L 0,0 L 0,842.04 z"
         id="path11871" /></clipPath></defs><g
     transform="matrix(1.25,0,0,-1.25,-3.512795,1051.4635)"
     id="g11719"><g
       transform="matrix(6.7279423,0,0,6.7279423,-262.16273,-4552.5599)"
       id="g11809"><g
         clip-path="url(#clipPath11813)"
         id="g11811"><g
           clip-path="url(#clipPath11819)"
           id="g11817"><g
             clip-path="url(#clipPath11825)"
             id="g11823"><path
               d="M 54.072,799.253 C 52.372,799.253 50.612,797.938 50.067,796.258 L 43.073,774.733 C 42.767,773.791 42.884,772.85 43.393,772.149 C 43.88,771.478 44.684,771.094 45.599,771.094 L 127.208,771.094 C 128.908,771.094 130.667,772.41 131.213,774.089 L 138.207,795.615 C 138.513,796.556 138.396,797.497 137.887,798.198 C 137.4,798.868 136.595,799.253 135.68,799.253 L 54.072,799.253"
               id="path11829"
               style="fill:#ffffff;fill-opacity:1;fill-rule:nonzero;stroke:none" /><path
               d="M 130.223,774.411 C 129.814,773.154 128.464,772.136 127.208,772.136 L 45.599,772.136 C 44.342,772.136 43.655,773.154 44.063,774.411 L 51.057,795.936 C 51.465,797.193 52.815,798.212 54.072,798.212 L 135.68,798.212 C 136.938,798.212 137.625,797.193 137.217,795.936 L 130.223,774.411 z M 53.147,793.134 L 72.166,793.134 L 72.858,795.23 L 55.042,795.23 C 54.319,795.214 53.759,794.99 53.496,794.219 L 53.147,793.134 z M 51.651,788.579 L 70.667,788.579 L 71.364,790.694 L 52.347,790.694 L 51.651,788.579 z M 66.935,777.241 L 47.915,777.241 L 47.224,775.141 L 64.987,775.144 L 65.034,775.147 C 65.034,775.147 65.034,775.147 65.035,775.147 L 65.039,775.147 C 65.762,775.163 66.323,775.385 66.586,776.157 L 66.935,777.241 z M 68.414,781.74 L 49.398,781.74 L 48.701,779.625 L 67.716,779.625 L 68.414,781.74 z M 69.904,786.241 L 50.873,786.241 L 50.176,784.101 L 69.192,784.101 L 69.904,786.241 z M 112.859,795.242 L 106.514,795.242 L 102.35,783.069 L 98.055,794.098 C 98.055,794.098 97.657,795.245 96.755,795.245 C 95.996,795.245 91.563,795.245 90.576,795.245 C 89.73,795.231 89.266,794.859 88.996,794.119 L 88.668,793.133 L 90.477,793.133 L 90.476,793.127 L 90.48,775.882 L 84.551,795.244 L 76.392,795.244 C 75.547,795.23 75.082,794.856 74.812,794.117 L 74.483,793.131 L 76.294,793.131 C 76.294,793.131 70.713,776.307 70.56,775.86 C 70.407,775.413 69.964,775.121 69.964,775.121 C 69.964,775.121 73.928,775.121 74.67,775.121 C 75.335,775.121 75.538,776.192 75.538,776.192 L 77.116,781.76 L 82.479,781.76 C 82.479,781.76 83.874,776.567 83.969,776.284 C 84.065,776 84.127,775.214 84.859,775.113 L 94.196,775.113 L 94.196,787.593 L 98.725,776.047 C 98.725,776.047 98.979,775.17 99.901,775.12 L 102.819,775.12 L 107.105,787.593 L 107.105,776.76 C 107.105,776.76 106.938,775.122 108.18,775.122 L 112.859,775.122 L 112.859,795.242 z M 131.63,788.702 C 131.63,794.454 127.788,795.248 123.924,795.248 L 116.15,795.246 C 115.335,795.219 114.882,794.842 114.616,794.117 L 114.289,793.132 L 116.102,793.132 L 116.102,776.588 C 116.098,776.169 116.19,775.125 117.183,775.125 C 118.115,775.125 121.833,775.126 121.833,775.126 L 121.832,782.353 L 123.825,782.353 C 126.163,782.353 131.63,782.848 131.63,788.702 z M 77.818,784.105 L 81.777,784.105 L 79.798,790.826 L 77.818,784.105 z M 123.234,792.044 C 122.989,792.044 121.832,792.044 121.832,792.044 L 121.832,783.871 C 124.785,783.871 125.695,786.721 125.695,788.825 C 125.695,790.712 124.76,792.044 123.234,792.044"
               id="path11831"
               style="fill:#015a99;fill-opacity:1;fill-rule:nonzero;stroke:none" /></g></g></g></g></g></svg>